<svg id="Layer_1" data-name="Layer 1" xmlns="http://www.w3.org/2000/svg" viewBox="0 0 1049.86 627.6"><defs/><path class="cls-1" d="M225.16 938.3c11.3-8.73 21.61-17.41 32.62-25 36.36-25.24 77.2-40.8 119-54.09l29.6-9.44c-1.72-2-2.86-3.56-4.25-4.88-34.92-33.57-65.29-70.73-88-113.68-8-15.12-14.33-31.1-21.62-46.6-1.8-3.84-.83-6.12 2.9-7.21 11.77-3.42 23.44-7.47 35.44-9.79 20.87-4 42.09-4.16 63.17-2a331.6 331.6 0 0169.7 14.4c10.55 3.44 21.08 7 32.71 10.83-.54-4.49-.78-8.18-1.46-11.78-3.57-18.94-7.72-37.78-10.76-56.8-2.93-18.34-5.11-36.83-7-55.32-2.39-23.9.28-47.48 6-70.74 1-4.15 2.4-8.21 3.76-12.78 67.29 21.85 121.14 62.83 169.47 113.93 11-58.81 29.24-113.12 64.78-160.21 8.65-11.48 19-21.68 29.68-33.74 7.26 7.76 13.68 14.2 19.64 21.05 33.5 38.52 53.19 84 66.12 132.75 3.24 12.19 5.4 24.66 8.09 37a15.81 15.81 0 001.34 2.61c47.91-50.43 101.58-91.51 169.28-113.44 1.76 6.65 3.64 13.08 5.15 19.6 5.79 25.08 6.52 50.57 3.78 75.93-2.37 21.93-6.72 43.65-10.44 65.42-2.43 14.25-5.32 28.41-8 42.63a19.79 19.79 0 00.29 3.84c8.43-2.88 16.35-5.67 24.32-8.3a362 362 0 0171.86-16.12c17.92-2.08 35.88-2.71 53.78-.8 17.34 1.86 34.58 4.74 50.73 11.95 3.3 1.48 4.31 3.1 2.85 6.89a408.37 408.37 0 01-73.67 122.07c-11.92 13.65-24.82 26.45-37.25 39.66-.88.93-1.63 2-3.05 3.73 6.07 1.93 11.5 3.7 17 5.39 38.66 12 76.84 25.13 112 45.6a289.36 289.36 0 0147.4 34c3.45 3.08 3.9 5.22.34 8.86-22 22.51-48.37 38.42-76.87 51.07-32.24 14.32-66.09 23.17-100.82 29-42.4 7.05-85.11 8-127.91 6.88-14.62-.37-29.2-2-43.79-3.1-1.77-.14-3.51-.64-6.56-1.22 3.31-6.38 5.91-12.25 9.26-17.67 7.88-12.78 7.15-24.76-1.1-37.26-10.66-16.15-25.59-23.7-44.42-24.26-2.39-.07-5 1.38-7.21 2.69-4.51 2.71-8.8 5.81-14.15 9.41-.93-8-2-14.84-2.48-21.69-1.52-21.74-2.83-43.49-4.2-65.23-1.34-21.24-2.34-42.51-4-63.72-2.17-26.87-20.83-49.36-47-57.71-6.75-2.15-13.81-3.87-19.93-7.24-4.24-2.34-7.89-6.7-10.41-11-3.72-6.35-1.16-13.1 1.78-19.1 5.81-11.81 11.76-23.55 14-36.66 2.78-16.17 3.2-32.26-5.6-47-7.13-11.93-18.53-16.57-31.89-15.51-21.21 1.69-32 13.5-34.74 34.77-2.68 20.91 2.45 39.84 11.76 58.17a116.4 116.4 0 015.45 13.33c2.46 6.86.32 12.86-4.38 17.89a33.65 33.65 0 01-18 10.12c-31.15 6.6-54.06 29.87-55.86 63.94-1.55 29.4-3 58.81-5 88.18-1.23 18.39-3.32 36.73-5.07 55.09a9.92 9.92 0 01-1.12 2.43c-3.3-1.94-6.85-3.27-9.36-5.67-5.65-5.4-11.94-5.86-19.31-5-24 2.77-41.27 24.85-43.14 40.74-1.08 9.18 3.65 16.62 7.87 24.19 2.33 4.16 4.31 8.52 7.05 14-6.76.81-12.39 1.91-18 2.08-28.29.84-56.58 2.08-84.86 1.91-26.1-.15-52.06-3.09-77.85-7.43-31.77-5.34-62.67-13.61-92.41-26-27.69-11.56-53.33-26.48-75.64-46.73-3.55-3.48-6.79-7.3-11.39-12.11z" transform="translate(-225.16 -403.3)"/><path class="cls-1" d="M670.45 962.55c5.62-38.11 2.93-76.62 11.06-114.18 3.84 14 7.62 28.08 11.53 42.1 3.42 12.26 4.61 24.7 4.78 37.44.27 19.09-10.01 27.32-27.37 34.64zM831.63 962.71a46.44 46.44 0 01-24.27-18c-2.72-4-2.5-10.18-2.9-15.43-1.51-19.81 4-38.48 9.54-57.17 2.24-7.62 4.18-15.33 6.44-23.71 8.16 37.83 5.48 75.96 11.19 114.31z" transform="translate(-225.16 -403.3)"/></svg>